<svg width="67" height="38" viewBox="0 0 67 38" fill="none" xmlns="http://www.w3.org/2000/svg">
<path fill-rule="evenodd" clip-rule="evenodd" d="M19 38C29.4934 38 38 29.4934 38 19C38 8.50659 29.4934 0 19 0C8.50659 0 0 8.50659 0 19C0 29.4934 8.50659 38 19 38ZM54 32C61.1797 32 67 26.1797 67 19C67 11.8203 61.1797 6 54 6C46.8203 6 41 11.8203 41 19C41 26.1797 46.8203 32 54 32Z" fill="url(#paint0_linear_375_2)"/>
<rect x="0.5" y="0.5" width="37" height="37" rx="18.5" stroke="black" stroke-opacity="0.3"/>
<rect x="1" y="1" width="36" height="36" rx="18" fill="#0284C3"/>
<rect x="41.5" y="6.5" width="25" height="25" rx="12.5" stroke="black" stroke-opacity="0.3"/>
<rect x="42" y="7" width="24" height="24" rx="12" fill="#0284C3"/>
<path d="M19 11L11 19L19 27" stroke="white" stroke-width="4"/>
<path d="M29 19H11" stroke="white" stroke-width="4"/>
<path d="M56 14L60.5 19L56 24" stroke="white" stroke-width="2.4"/>
<path d="M48 19H60.5" stroke="white" stroke-width="2.4"/>
<defs>
<linearGradient id="paint0_linear_375_2" x1="33.5" y1="0" x2="33.5" y2="18" gradientUnits="userSpaceOnUse">
<stop stop-color="#666666" stop-opacity="0.29"/>
<stop offset="1" stop-color="#666666" stop-opacity="0"/>
</linearGradient>
</defs>
</svg>
