<svg width="67" height="44" viewBox="0 0 67 44" fill="none" xmlns="http://www.w3.org/2000/svg">
<path fill-rule="evenodd" clip-rule="evenodd" d="M44.1732 27.5112L32.4911 32.3787C29.0485 35.8501 24.2753 38 19 38C8.50659 38 0 29.4934 0 19C0 8.50659 8.50659 0 19 0C24.3254 0 26.7141 1.00684 29.5345 2.19564C33.5991 3.90887 38.5603 6 54.5 6V6.00944C61.1111 6.25944 66.4583 11.4462 66.9613 17.9895L67 18L66.9633 18.0153C66.9876 18.3404 67 18.6687 67 19C67 26.1797 61.1797 32 54 32C50.0753 32 46.5569 30.2608 44.1732 27.5112Z" fill="url(#paint0_linear_254_105)"/>
<rect x="0.5" y="0.5" width="37" height="37" rx="18.5" stroke="black" stroke-opacity="0.3"/>
<rect x="1" y="1" width="36" height="36" rx="18" fill="#0284C3"/>
<rect x="1.5" y="1.5" width="35" height="35" rx="17.5" stroke="#F7F7F7" stroke-opacity="0.2"/>
<circle cx="19" cy="19" r="18" fill="url(#paint1_linear_254_105)"/>
<mask id="mask0_254_105" style="mask-type:alpha" maskUnits="userSpaceOnUse" x="6" y="19" width="27" height="25">
<ellipse cx="19.5" cy="31.7" rx="13.5" ry="12" fill="url(#paint2_radial_254_105)"/>
</mask>
<g mask="url(#mask0_254_105)">
<rect x="1" y="1" width="36" height="36" rx="18" fill="white" fill-opacity="0.35"/>
</g>
<rect x="41.5" y="6.5" width="25" height="25" rx="12.5" stroke="black" stroke-opacity="0.3"/>
<rect x="42" y="7" width="24" height="24" rx="12" fill="#0284C3"/>
<rect x="42.5" y="7.5" width="23" height="23" rx="11.5" stroke="#F7F7F7" stroke-opacity="0.2"/>
<circle cx="54" cy="19" r="12" fill="url(#paint3_linear_254_105)"/>
<mask id="mask1_254_105" style="mask-type:alpha" maskUnits="userSpaceOnUse" x="45" y="19" width="19" height="17">
<ellipse cx="54.3333" cy="27.8501" rx="9" ry="8.14988" fill="url(#paint4_radial_254_105)"/>
</mask>
<g mask="url(#mask1_254_105)">
<rect x="42" y="7" width="24" height="24" rx="12" fill="white" fill-opacity="0.35"/>
</g>
<path d="M19 11L11 19L19 27" stroke="white" stroke-width="4"/>
<path d="M29 19H11" stroke="white" stroke-width="4"/>
<path d="M56 14L60.5 19L56 24" stroke="white" stroke-width="2.4"/>
<path d="M48 19H60.5" stroke="white" stroke-width="2.4"/>
<defs>
<linearGradient id="paint0_linear_254_105" x1="33.5" y1="0" x2="33.5" y2="18" gradientUnits="userSpaceOnUse">
<stop stop-color="#666666" stop-opacity="0.29"/>
<stop offset="1" stop-color="#666666" stop-opacity="0"/>
</linearGradient>
<linearGradient id="paint1_linear_254_105" x1="19" y1="1" x2="19" y2="37" gradientUnits="userSpaceOnUse">
<stop stop-color="white" stop-opacity="0.28"/>
<stop offset="0.49" stop-color="white" stop-opacity="0.15"/>
<stop offset="0.5" stop-color="#FEFEFE" stop-opacity="0.01"/>
</linearGradient>
<radialGradient id="paint2_radial_254_105" cx="0" cy="0" r="1" gradientUnits="userSpaceOnUse" gradientTransform="translate(19.5 37.7) rotate(-90) scale(18 17.0372)">
<stop offset="0.46875" stop-color="white"/>
<stop offset="0.885417" stop-color="white" stop-opacity="0"/>
</radialGradient>
<linearGradient id="paint3_linear_254_105" x1="54" y1="7" x2="54" y2="31" gradientUnits="userSpaceOnUse">
<stop stop-color="white" stop-opacity="0.28"/>
<stop offset="0.49" stop-color="white" stop-opacity="0.15"/>
<stop offset="0.5" stop-color="#FEFEFE" stop-opacity="0.01"/>
</linearGradient>
<radialGradient id="paint4_radial_254_105" cx="0" cy="0" r="1" gradientUnits="userSpaceOnUse" gradientTransform="translate(54.3333 31.925) rotate(-90) scale(12.2248 11.3582)">
<stop offset="0.46875" stop-color="white"/>
<stop offset="0.885417" stop-color="white" stop-opacity="0"/>
</radialGradient>
</defs>
</svg>
