<svg width="60" height="32" viewBox="0 0 60 32" fill="none" xmlns="http://www.w3.org/2000/svg">
<path d="M19.4286 0L21.4813 6.31756H28.124L22.75 10.222L24.8027 16.5396L19.4286 12.6351L14.0546 16.5396L16.1073 10.222L10.7332 6.31756H17.3759L19.4286 0Z" fill="url(#paint0_linear_256_115)"/>
<path d="M9.14286 13.7143L11.1956 20.0319H17.8382L12.4642 23.9363L14.5169 30.2539L9.14286 26.3494L3.76882 30.2539L5.82152 23.9363L0.447483 20.0319H7.09016L9.14286 13.7143Z" fill="url(#paint1_linear_256_115)"/>
<path d="M40 0L42.0527 6.31756H48.6954L43.3214 10.222L45.3741 16.5396L40 12.6351L34.626 16.5396L36.6787 10.222L31.3047 6.31756H37.9473L40 0Z" fill="url(#paint2_linear_256_115)"/>
<path d="M29.7143 13.7143L31.767 20.0319H38.4096L33.0356 23.9363L35.0883 30.2539L29.7143 26.3494L24.3402 30.2539L26.3929 23.9363L21.0189 20.0319H27.6616L29.7143 13.7143Z" fill="url(#paint3_linear_256_115)"/>
<path d="M50.2857 13.7143L52.3384 20.0319H58.9811L53.607 23.9363L55.6597 30.2539L50.2857 26.3494L44.9116 30.2539L46.9643 23.9363L41.5903 20.0319H48.233L50.2857 13.7143Z" fill="url(#paint4_linear_256_115)"/>
<defs>
<linearGradient id="paint0_linear_256_115" x1="10.2858" y1="0" x2="31.8182" y2="6.02015" gradientUnits="userSpaceOnUse">
<stop stop-color="#FC8F2E"/>
<stop offset="1" stop-color="#F8D21B"/>
</linearGradient>
<linearGradient id="paint1_linear_256_115" x1="0" y1="13.7143" x2="21.5324" y2="19.7344" gradientUnits="userSpaceOnUse">
<stop stop-color="#FC8F2E"/>
<stop offset="1" stop-color="#F8D21B"/>
</linearGradient>
<linearGradient id="paint2_linear_256_115" x1="30.8572" y1="0" x2="52.3896" y2="6.02015" gradientUnits="userSpaceOnUse">
<stop stop-color="#FC8F2E"/>
<stop offset="1" stop-color="#F8D21B"/>
</linearGradient>
<linearGradient id="paint3_linear_256_115" x1="20.5714" y1="13.7143" x2="42.1038" y2="19.7344" gradientUnits="userSpaceOnUse">
<stop stop-color="#FC8F2E"/>
<stop offset="1" stop-color="#F8D21B"/>
</linearGradient>
<linearGradient id="paint4_linear_256_115" x1="41.1428" y1="13.7143" x2="62.6752" y2="19.7344" gradientUnits="userSpaceOnUse">
<stop stop-color="#FC8F2E"/>
<stop offset="1" stop-color="#F8D21B"/>
</linearGradient>
</defs>
</svg>
